<svg xmlns="http://www.w3.org/2000/svg" xmlns:xlink="http://www.w3.org/1999/xlink" width="375" height="776" viewBox="0 0 375 776">
  <defs>
    <clipPath id="clip-iPhone_X_XS_11_Pro_11">
      <rect width="375" height="776"/>
    </clipPath>
  </defs>
  <g id="iPhone_X_XS_11_Pro_11" data-name="iPhone X, XS, 11 Pro – 11" clip-path="url(#clip-iPhone_X_XS_11_Pro_11)">
    <rect width="375" height="776" fill="#212144"/>
    <path id="Path_33" data-name="Path 33" d="M17.885,0A17.885,17.885,0,1,1,0,17.885,17.885,17.885,0,0,1,17.885,0Z" transform="translate(16 16)" fill="#fff" opacity="0.33"/>
    <g id="layer1" transform="translate(-168.761 -312.759)">
      <g id="Group_6" data-name="Group 6" transform="translate(292.271 469.452)">
        <path id="Path_34" data-name="Path 34" d="M401.414,582.456q-2.686,1.2-6.652,3.347-2.384,1.273-7.981,4.437h.021c-1.891,1.266-3.917,2.567-5.555,3.544-1,.6-1.849,1.294-1.856,1.54a28.364,28.364,0,0,0,3.839,3.811c2.145,1.912,4.493,3.966,5.238,4.62l1.315,1.224.64-1.224.5-1.041c.127-.26.253-.5.387-.717h.021l2.609-5.049h.021A126.557,126.557,0,0,1,400,585.191h.021l1.413-2.735Zm1.5.113-9.042,17.48h.028a39.987,39.987,0,0,0-2.039,5.914c0,.45,2.088,2.609,4.585,4.768,2.545,2.1,4.739,4.015,4.887,4.163s1,.9,1.9,1.758c.717.64,1.238,1,1.624,1,.352,0,.584-.3.731-.964h.028l.626-22.135h.021c-.077-.063-.106-.134-.07-.2.105-.246-.541-.752-1.547-1.153-1.6-.7-1.744-.907-1.491-2.152.2-.752.408-1.9.555-2.552a14.86,14.86,0,0,0-.084-3.6c-.2-1.441-.323-2.067-.689-2.327ZM490.63,693.694a3.536,3.536,0,0,0-1.216.26,1.272,1.272,0,0,0-.809,1.1,4.264,4.264,0,0,1-1.456,2.046c-1.2,1.048-2.06,3.15-4.781,11.293-2.623,7.889-3.178,10.09-2.679,10.54.527.534,6.722.872,11.883.886,3.579.014,6.666-.134,7.018-.478.45-.45.71-3.8.879-11.152.232-9.148.183-10.5-.52-10.5a2.622,2.622,0,0,1-1.547-1.259,2.6,2.6,0,0,0-1.99-1.252,7.036,7.036,0,0,1-2.6-.759A4.984,4.984,0,0,0,490.63,693.694Zm24.378.936-6.349.337c-3.453.19-6.4.429-6.5.527a30.346,30.346,0,0,0,.338,5.351c.345,2.8.682,5.9.78,6.856.485,4.8.83,6.849,1.322,8.1a3.449,3.449,0,0,1,.3,2,2.418,2.418,0,0,0,.246,1.5c.4.8,1.251.907,6.652.921l6.251.021.007-2.9a31.789,31.789,0,0,0-.534-5.1c-.647-3-1.772-10.5-2.159-14.457Zm24.062-225.178a12.455,12.455,0,0,1,2.454.19,24.532,24.532,0,0,1,4.746,1.87c2.595,1.153,7.777,6.919,9.422,10.575,2.482,5.309,2.482,5.309,2.974,8.508,1.519,9.408-.148,15.5-5.914,21.432a4.175,4.175,0,0,0-1.1,1.7.813.813,0,0,1-.555.7c-.752.246-.823,7.749-.077,8.5.9.9.745,3.551-.471,7.045-1.21,3.551-1.069,6.448.38,7.854a45.433,45.433,0,0,1,2.89,3.509,34.789,34.789,0,0,0,3.038,3.713c.9.949,2.088,4.957,2.426,8.4a3.475,3.475,0,0,0,.2,1.153c.253,0,.127,9.2-.126,10.449a8.9,8.9,0,0,1-1.062,2.545,22.566,22.566,0,0,0-1.765,4.6c-3.382,11.588-3.987,13.887-3.79,14.19.1.2,0,.45-.3.549-.246.049-.549.8-.654,1.652-.155,1.4-1.364,5.59-3.938,13.733a33.481,33.481,0,0,0-1.322,5.85,4.55,4.55,0,0,0,.387,3.22h.021q7.763,8.705,24.224,26.572a47.631,47.631,0,0,1,3.157,5.632h0q.119,0,8.262,17.677,1.709,3.558,4.149,7.91.26.7-.549.956h.021l-.5.549c-1.209,1.252-1.258,2.2-.26,3.551a3.507,3.507,0,0,1,.745,1.505c-.007.3-1.758,1.294-3.909,2.187-5.154,2.285-5.309,2.433-4.915,5.885.19,1.554.429,6.455.563,10.849a76.444,76.444,0,0,0,.478,8.206h.007c.3,0,5.949-5.428,12.727-12.165,6.877-6.877,14.042-13.859,16-15.6,2.9-2.693,3.91-4.036,6.37-8.733l2.918-5.59.021-6c.063-6.455.724-8.705,3.333-11a66.757,66.757,0,0,0,5.942-7.011h.021l9.865-15.427a.848.848,0,0,1,.429-.3h.021a.652.652,0,0,1,.52-.288.9.9,0,0,1,.478.162l.021.014a.687.687,0,0,1,.141.823l-9.83,18.191h0l-.141,1.259h0l.907.274a8.274,8.274,0,0,0,.858.183,6.756,6.756,0,0,0,.97.07,6.046,6.046,0,0,0,1.048-.077,12.448,12.448,0,0,0,3.741-1.308q3.607-1.673,14.133-10.02h.021q.042-.05.084-.106,1.28-1.125,2.222-1.92h.021a6.455,6.455,0,0,1,.738-.647H652q.836-.682,1.294-.991a3.067,3.067,0,0,1,1.786-.717h.035a1.079,1.079,0,0,1,.134-.007,13.671,13.671,0,0,1,3.959,1.441,42.946,42.946,0,0,1,5.6,2.925,12.93,12.93,0,0,1,5.027,5.063q1.252,2.756-.162,6.624a18.02,18.02,0,0,1-2.412,4.381q-1.273,1.743-2.109,1.744h-.049a.363.363,0,0,1-.07-.007h-.021a1.851,1.851,0,0,1-.2.014,8.5,8.5,0,0,1-1.807-.365,18.849,18.849,0,0,0-4.788-.612,13.313,13.313,0,0,0-5.611,1.034,11.448,11.448,0,0,0-1.477.97h.021q-10.772,11.18-14.5,16.559A41,41,0,0,0,631.5,675.87a.782.782,0,0,1-.485.2h-.035c-.534.794-1.519,1.076-3.354,1.069-.309,0-.647-.007-1.005-.028-.436-.014-.809-.028-1.132-.028a6.854,6.854,0,0,0-1,.056h.021q-9.788,13.627-14.091,20.272-1.835,2.84-3.15,5.175L602.3,712.04q-1.624,2.946-4.606,7.819l-6.328,10.161a.761.761,0,0,1-.535.26h-.056a14.047,14.047,0,0,1-1.87,2.426A10.819,10.819,0,0,0,587,735.047a41.489,41.489,0,0,1-3.762,4.043c-3.375,3.389-5.007,4.585-7.418,4.578a15.965,15.965,0,0,1-3.4-.513c-8.346-1.927-10.034-4.029-17.987-22.55-1.786-4.156-3.966-9.464-4.866-11.918-1.188-3.1-1.885-4.36-2.531-4.36-.555,0-.907.5-1.1,1.6-.106.9-.612,3.452-1.02,5.646a130.686,130.686,0,0,0-1.329,13.409h.021q.021,1.744.028,3.038.014,3.474-.085,5.513-.056,1.209-.148,2.053l-.366,2.609q-.07.576-.112,1.125a26.154,26.154,0,0,0,.014,3.2q.091,1.617.372,4.078l1.625,12.692q.478,3.959.766,7.2a109.013,109.013,0,0,1,.492,12.607,61.173,61.173,0,0,1-1.16,10.231q-.33,2.215-2.665,10.519h.028c-.2,1.73-.45,4.409-.668,7.376l-.626,9.1,1.146,1.252a2.7,2.7,0,0,1,.893,2.1c-.6,2.349.584,7.805,2.665,12.059,1.146,2.356,2.187,4.662,2.342,5.062.394,1.646.126,6.645-.373,7-.555.352-2,16-2.32,24.393-.1,2.637-.183,3.3-.724,3.29a1.126,1.126,0,0,1-.288-.042c-.752-.2-.844-1.1-.823-10.055.028-9.788-.141-12.706-1.006-13.381h-.021a48.43,48.43,0,0,0-5.787,3.748,20.838,20.838,0,0,0-4.31,4.528,21.6,21.6,0,0,0-2.756,5.611,54.272,54.272,0,0,0-1.948,8.4,8.17,8.17,0,0,1-.583,1.673,5.452,5.452,0,0,1-3.832,2.961,31.027,31.027,0,0,1-7.988.668q-1.885,0-4.149-.085a1.067,1.067,0,0,1-.5-.26h-.028c-.2.007-.394.007-.569.007-2.377-.007-2.567-.2-2.56-.815a18.716,18.716,0,0,0-.942-3.706c-1.237-3.755-1.723-8.206-1.019-9.45.654-1.251,2.658-2.348,5.154-2.785,1.006-.2,1.856-.548,1.856-.794s.3-.45.647-.45c.851,0,3.917-3.192,5.217-5.484a63.5,63.5,0,0,0,3.228-8.494l2.222-6.743.028-9.352c.014-5.6-.176-9.549-.471-9.8s-11.1-.781-24-1.118c-12.952-.387-26.748-.879-30.749-1.139s-12.249-.64-18.352-.858c-10.695-.33-11.047-.379-11.342-1.434a63.985,63.985,0,0,1-.281-7.6c.021-7.1-.028-7.2-2.777-7.208a1.7,1.7,0,0,1-1.547-.8,38.823,38.823,0,0,1,.569-6.905c.865-6.244,2.046-15.694,2.918-23.541.26-2.5.823-6.849,1.231-9.746s.879-11.349,1.1-18.746c.169-7.453.492-14.949.7-16.749l.316-3.248,1.6.154a5.173,5.173,0,0,0,.555.028c.654.007,1.1-.141,1.1-.373,0-.3.549-.549,1.252-.549,1,0,1.252-.246,1.252-1.245,0-.851-.014-1.181.591-1.181a13.8,13.8,0,0,1,2.166.387c7.84,1.723,14.942,3.045,17.537,3.354l3.1.359,2.06-2.946c1.1-1.6,2.51-3.445,3.059-4.141,1.209-1.449,8.388-12.678,9.647-15.125a39.6,39.6,0,0,0,1.716-4.24c.45-1.4,1.005-2.6,1.252-2.6.555.007,1.364-4.493,1.73-9.746.373-5.9,1.28-9.591,2.988-12.291.753-1.2,2.412-3.79,3.614-5.688,2.82-4.395,3.122-5.541,3.748-14.042.26-3.846.724-9.3.984-12.192.872-8.9,2.088-31.649,1.8-33.449-.443-2.6-4.268-12.214-5.013-12.467a.476.476,0,0,0-.134-.021.518.518,0,0,0-.471.57,2.124,2.124,0,0,1-1.006,1.4,3.512,3.512,0,0,0-1.1,1.449,2.912,2.912,0,0,1-1.055,1.392c-.45.352-.752.851-.6,1.1.155.2-.1.5-.5.7a1.2,1.2,0,0,0-.752,1.048c0,.4-.253.745-.5.745a.475.475,0,0,0-.506.5,3.128,3.128,0,0,1-.9,1.4,44.993,44.993,0,0,0-3.614,4.592,16.965,16.965,0,0,1-2.362,2.742,3.417,3.417,0,0,0-1.153,1.441,2.149,2.149,0,0,1-.654,1c-.3.352-1.456,1.6-2.56,2.742-1.118,1.294-1.906,1.842-2.489,1.835a.771.771,0,0,1-.26-.042,35.9,35.9,0,0,0-4.549-1.012c-12.4-2.285-23.739-6.117-37.668-12.713l-6.891-3.319-6.849-.422a39.461,39.461,0,0,1-8.993-1.224,35.263,35.263,0,0,0-4.352-1.111c-.162-.021-.324-.049-.471-.078H407.6l-.457,15.983h.028c.035,3,.077,5.506.106,6.49l.042,2.749,6.04,5.274c3.34,2.855,6.68,5.815,7.482,6.518.745.752,2.194,1.955,3.136,2.707,1,.759,1.8,1.561,1.8,1.807-.007.6-2.82,4.7-5.224,7.537a14.821,14.821,0,0,0-1.906,2.595c.049.147-.457.794-1.055,1.5a12.073,12.073,0,0,0-1.863,2.644,14.321,14.321,0,0,1-1.554,2.292,11.672,11.672,0,0,0-1.5,2.25,13.58,13.58,0,0,1-1.61,2.342c-.8.851-4.514,6.04-6.125,8.586-.3.4-.907,1.245-1.357,1.842-1.758,2.145-6.828,9.183-7.432,10.28a19.522,19.522,0,0,1-1.751,2.447c-.6.7-2.665,3.094-4.472,5.288-5.97,7.13-7.024,8.382-9.331,11.026a90.261,90.261,0,0,0-6.673,8.276,23.081,23.081,0,0,1-3.213,3.9,29.325,29.325,0,0,1-4.887-3.615,44.521,44.521,0,0,0-4.247-3.066c-1.793-1.153-3.593-2.362-3.987-2.714-5.787-4.669-8.635-6.673-9.584-6.68a8.98,8.98,0,0,0-3.607,1.99,14.028,14.028,0,0,1-2.756,2c-.45-.007-4.388-4.515-8.817-10.027-1.891-2.356-3.839-4.712-4.339-5.267-.548-.549-1.54-1.8-2.292-2.756-.7-.949-1.687-2.2-2.187-2.756s-2.5-3.108-4.437-5.661a29.934,29.934,0,0,0-6.082-6.371c-4.24-2.813-5.288-3.916-5.281-5.815,0-1.35-.647-2.4-3.234-5.463a79.469,79.469,0,0,1-5.084-6.511c-.991-1.5-3.087-4.711-4.676-7.116l-2.939-4.359,1.35-.893a26.035,26.035,0,0,0,2.756-2.292,5.855,5.855,0,0,1,1.955-1.35.449.449,0,0,0,.457-.443c0-.253.549-.6,1.252-.746a8.813,8.813,0,0,0,2.9-2.046,6.614,6.614,0,0,1,2.355-1.744,8.938,8.938,0,0,0,2.707-1.638c1.153-.949,4.507-3.34,7.566-5.379,3-1.99,5.857-4.036,6.363-4.43a15.141,15.141,0,0,1,4.107-2.841c1-.45,1.8-.991,1.807-1.245a.431.431,0,0,1,.4-.4c.549,0,22.044-14.232,23.443-15.484a3.69,3.69,0,0,1,1.751-.942c.956.007,4.964-2.735,8.972-6.174a32.4,32.4,0,0,1,3.509-2.792c.148,0,2.693,2.159,5.738,4.816,4.219,3.713,5.238,4.543,6.356,4.564h0q11.9-6.821,16.1-9.071a84.292,84.292,0,0,1,8.346-4.078h.028a.63.63,0,0,1,.436-.19h.028a1.5,1.5,0,0,0,.232-.429c.19-.6.549-.809,2.067-.8.492,0,1.111.021,1.885.063a17.356,17.356,0,0,1,4.6.612,9.6,9.6,0,0,0,2.545.809,24.6,24.6,0,0,1,5.7,3.213c2.194,1.61,4.739,3.368,5.583,3.973,1.5.949,10.491,4.029,15.336,5.245,1.252.3,3.7,1.006,5.5,1.512,9.689,2.9,20.349,4.922,25.384,4.936a6.928,6.928,0,0,0,2.454-.3c1.055-.45,2.56-2.546,5.773-7.932,2.412-4.043,5.428-8.937,6.68-10.836a16.361,16.361,0,0,0,2.264-4.444c.007-1.294,2.63-8.037,4.585-11.834a7.782,7.782,0,0,0,.964-2.848,1.911,1.911,0,0,1,.45-1.35,3.929,3.929,0,0,0,.858-1.849,9.1,9.1,0,0,1,.759-2.4c1.153-2.194,3.474-9.289,3.481-10.737a5.467,5.467,0,0,1,1.005-2.9,4.981,4.981,0,0,0,1.013-2.595c0-1.652.76-3.1,2.56-4.894a7.9,7.9,0,0,0,1.976-7.594,6.487,6.487,0,0,0-1.048-2.307c-.3-.147-.19-1.849.169-4.05.555-3.8.555-3.8-.738-5.4-1.294-1.5-1.294-1.6-.542-3.15a24.3,24.3,0,0,1,2.363-3.495c1.5-1.9,1.5-1.948,1.216-6.849-.281-4.5-.183-5.1.872-7.095a16.566,16.566,0,0,0,1.413-4.95c.415-3.846,2.426-7.545,5.984-10.983,2.763-2.693,9.176-6.919,10.421-6.919.3,0,.555-.2.555-.4C527.272,470.5,534.648,469.438,539.071,469.452Z" transform="translate(-292.271 -469.452)"/>
      </g>
    </g>
    <g id="Ellipse_40" data-name="Ellipse 40" transform="translate(16 91)" fill="#fff" stroke="#707070" stroke-width="1">
      <circle cx="42.5" cy="42.5" r="42.5" stroke="none"/>
      <circle cx="42.5" cy="42.5" r="42" fill="none"/>
    </g>
    <text id="Akosua_Brayce" data-name="Akosua Brayce" transform="translate(16 203)" fill="#fff" font-size="12" font-family="Montserrat-Regular, Montserrat"><tspan x="0" y="0">Akosua Brayce</tspan></text>
    <text id="www.akosua345_gmail.com" data-name="www.akosua345@gmail.com" transform="translate(16 218)" fill="#f5f5f5" font-size="8" font-family="SegoeUI, Segoe UI"><tspan x="0" y="0">www.akosua345@gmail.com</tspan></text>
    <line id="Line_2" data-name="Line 2" x2="167" transform="translate(16.5 244.5)" fill="none" stroke="#707070" stroke-width="1"/>
    <path id="Icon_metro-home" data-name="Icon metro-home" d="M18.571,11.6l-8-6.21-8,6.21V9.071l8-6.21,8,6.21Zm-2-.226v6h-4v-4h-4v4h-4v-6l6-4.5Z" transform="translate(14.429 289.374)" fill="#fff"/>
    <g id="Icon_ionic-ios-cart" data-name="Icon ionic-ios-cart" transform="translate(13.618 330.963)">
      <path id="Path_35" data-name="Path 35" d="M12.13,29.409a1.284,1.284,0,1,1-1.284-1.284,1.284,1.284,0,0,1,1.284,1.284Z" transform="translate(-2.971 -11.421)" fill="#fff"/>
      <path id="Path_36" data-name="Path 36" d="M27.915,29.409a1.284,1.284,0,1,1-1.284-1.284,1.284,1.284,0,0,1,1.284,1.284Z" transform="translate(-11.499 -11.421)" fill="#fff"/>
      <path id="Path_37" data-name="Path 37" d="M19.376,6.915a.223.223,0,0,0-.2-.149L6.645,5.649a.391.391,0,0,1-.289-.167,3.6,3.6,0,0,0-.469-.66c-.3-.333-.854-.323-1.878-.33-.346,0-.627.184-.627.5a.534.534,0,0,0,.6.5,5.536,5.536,0,0,1,1,.067c.181.05.327.323.381.56a.012.012,0,0,0,0,.011c.008.043.077.362.077.365L6.983,14a2.646,2.646,0,0,0,.558,1.266,1.584,1.584,0,0,0,1.266.575h9.1a.531.531,0,0,0,.554-.475.514.514,0,0,0-.539-.518H8.8a.473.473,0,0,1-.319-.1,1.545,1.545,0,0,1-.442-.922l-.165-.841a.02.02,0,0,1,.015-.021L18.572,11.3a.215.215,0,0,0,.189-.184l.616-4.107A.187.187,0,0,0,19.376,6.915Z" fill="#fff"/>
    </g>
    <path id="Icon_awesome-gift" data-name="Icon awesome-gift" d="M1,15.25a1,1,0,0,0,1,1H7v-5H1Zm8,1h5a1,1,0,0,0,1-1v-4H9Zm6-10H13.684A2.725,2.725,0,0,0,14,5a2.754,2.754,0,0,0-2.75-2.75c-1.3,0-2.141.666-3.219,2.134C6.953,2.916,6.113,2.25,4.813,2.25A2.754,2.754,0,0,0,2.063,5a2.687,2.687,0,0,0,.316,1.25H1a1,1,0,0,0-1,1v2.5a.5.5,0,0,0,.5.5h15a.5.5,0,0,0,.5-.5V7.25A1,1,0,0,0,15,6.25Zm-10.191,0a1.25,1.25,0,0,1,0-2.5c.622,0,1.081.1,2.691,2.5H4.809Zm6.441,0H8.559c1.606-2.391,2.053-2.5,2.691-2.5a1.25,1.25,0,0,1,0,2.5Z" transform="translate(18 374.039)" fill="#fff"/>
    <g id="Icon_ionic-ios-card" data-name="Icon ionic-ios-card" transform="translate(15.875 413.705)">
      <path id="Path_38" data-name="Path 38" d="M18.25,8.258A1.368,1.368,0,0,0,17.107,6.75H3.393A1.368,1.368,0,0,0,2.25,8.258v2.263h16Z" fill="#fff"/>
      <path id="Path_39" data-name="Path 39" d="M2.25,23.292A1.368,1.368,0,0,0,3.393,24.8H17.107a1.368,1.368,0,0,0,1.143-1.508V15.75h-16Zm5.071-2.263h5.857a.6.6,0,0,1,.5.66h0a.6.6,0,0,1-.5.66H7.321a.6.6,0,0,1-.5-.66h0A.6.6,0,0,1,7.321,21.029Zm-2.571,0h.429a.6.6,0,0,1,.5.66h0a.6.6,0,0,1-.5.66H4.75a.6.6,0,0,1-.5-.66h0A.6.6,0,0,1,4.75,21.029Z" transform="translate(0 -6.621)" fill="#fff"/>
    </g>
    <path id="Icon_ionic-ios-settings" data-name="Icon ionic-ios-settings" d="M19.179,12.5A2.059,2.059,0,0,1,20.5,10.579,8.161,8.161,0,0,0,19.512,8.2a2.086,2.086,0,0,1-.837.179A2.054,2.054,0,0,1,16.8,5.487,8.136,8.136,0,0,0,14.421,4.5a2.057,2.057,0,0,1-3.842,0A8.161,8.161,0,0,0,8.2,5.487,2.054,2.054,0,0,1,6.321,8.379,2.019,2.019,0,0,1,5.483,8.2,8.341,8.341,0,0,0,4.5,10.583a2.058,2.058,0,0,1,0,3.842A8.161,8.161,0,0,0,5.492,16.8,2.055,2.055,0,0,1,8.2,19.517a8.209,8.209,0,0,0,2.379.987,2.053,2.053,0,0,1,3.833,0,8.161,8.161,0,0,0,2.379-.987A2.057,2.057,0,0,1,19.508,16.8a8.209,8.209,0,0,0,.988-2.379A2.069,2.069,0,0,1,19.179,12.5Zm-6.642,3.329A3.333,3.333,0,1,1,15.871,12.5,3.332,3.332,0,0,1,12.537,15.829Z" transform="translate(12.683 455.087)" fill="#fff"/>
    <path id="Icon_ionic-ios-help-circle" data-name="Icon ionic-ios-help-circle" d="M11.375,3.375a8,8,0,1,0,8,8A8,8,0,0,0,11.375,3.375ZM11.21,15.067a.793.793,0,1,1,.827-.792A.8.8,0,0,1,11.21,15.067Zm1.546-3.727c-.669.388-.9.673-.9,1.165v.3H10.525l-.012-.331a1.6,1.6,0,0,1,.908-1.692c.65-.388.923-.635.923-1.112a.934.934,0,0,0-1.035-.827.973.973,0,0,0-1.031.946H8.913A2.2,2.2,0,0,1,11.4,7.679c1.442,0,2.435.8,2.435,1.95A1.883,1.883,0,0,1,12.756,11.34Z" transform="translate(14.625 502.429)" fill="#fff"/>
    <path id="Icon_metro-cross" data-name="Icon metro-cross" d="M17.854,14.32h0L13.175,9.64l4.679-4.679h0a.483.483,0,0,0,0-.682l-2.21-2.21a.483.483,0,0,0-.682,0h0L10.283,6.748,5.6,2.069h0a.483.483,0,0,0-.682,0l-2.21,2.21a.483.483,0,0,0,0,.682h0L7.391,9.64,2.712,14.319h0a.483.483,0,0,0,0,.682l2.21,2.21a.483.483,0,0,0,.682,0h0l4.679-4.679,4.679,4.679h0a.483.483,0,0,0,.681,0L17.854,15a.483.483,0,0,0,0-.682Z" transform="translate(22.89 23.993)" fill="#fff"/>
    <text id="Home" transform="translate(58 304)" fill="#fff" font-size="12" font-family="Montserrat-Regular, Montserrat"><tspan x="0" y="0">Home</tspan></text>
    <text id="My_Cart" data-name="My Cart" transform="translate(58 347)" fill="#fff" font-size="12" font-family="Montserrat-Regular, Montserrat"><tspan x="0" y="0">My Cart</tspan></text>
    <text id="Promotions" transform="translate(58 391)" fill="#fff" font-size="12" font-family="Montserrat-Regular, Montserrat"><tspan x="0" y="0">Promotions</tspan></text>
    <text id="My_Payments" data-name="My Payments" transform="translate(58 433)" fill="#fff" font-size="12" font-family="Montserrat-Regular, Montserrat"><tspan x="0" y="0">My Payments</tspan></text>
    <text id="Settings" transform="translate(58 476)" fill="#fff" font-size="12" font-family="Montserrat-Regular, Montserrat"><tspan x="0" y="0">Settings</tspan></text>
    <text id="Help" transform="translate(58 521)" fill="#fff" font-size="12" font-family="Montserrat-Regular, Montserrat"><tspan x="0" y="0">Help</tspan></text>
  </g>
</svg>
