<svg xmlns="http://www.w3.org/2000/svg" xmlns:xlink="http://www.w3.org/1999/xlink" width="375" height="776" viewBox="0 0 375 776">
  <defs>
    <clipPath id="clip-iPhone_X_XS_11_Pro_6">
      <rect width="375" height="776"/>
    </clipPath>
  </defs>
  <g id="iPhone_X_XS_11_Pro_6" data-name="iPhone X, XS, 11 Pro – 6" clip-path="url(#clip-iPhone_X_XS_11_Pro_6)">
    <rect width="375" height="776" fill="#f7f9f9"/>
    <rect id="Rectangle_52" data-name="Rectangle 52" width="257" height="51" rx="16" transform="translate(55 709)" fill="#212144"/>
    <text id="Sign_in" data-name="Sign in" transform="translate(155 740)" fill="#f7f9f9" font-size="16" font-family="Montserrat-SemiBold, Montserrat" font-weight="600"><tspan x="0" y="0">Sign in</tspan></text>
    <text id="Register" transform="translate(119 194)" fill="#212144" font-size="32" font-family="Montserrat-SemiBold, Montserrat" font-weight="600"><tspan x="0" y="0">Register</tspan></text>
    <text id="Create_your_new_account" data-name="Create your new account" transform="translate(90 233)" fill="#6a6a6d" font-size="16" font-family="Montserrat-Regular, Montserrat" opacity="0.55"><tspan x="0" y="0">Create your new account</tspan></text>
    <g id="Rectangle_54" data-name="Rectangle 54" transform="translate(15 293)" fill="#fff" stroke="#707070" stroke-width="1">
      <rect width="343" height="54" rx="15" stroke="none"/>
      <rect x="0.5" y="0.5" width="342" height="53" rx="14.5" fill="none"/>
    </g>
    <g id="Rectangle_55" data-name="Rectangle 55" transform="translate(15 363)" fill="#fff" stroke="#707070" stroke-width="1">
      <rect width="343" height="54" rx="15" stroke="none"/>
      <rect x="0.5" y="0.5" width="342" height="53" rx="14.5" fill="none"/>
    </g>
    <text id="Enter_Your_Full_Name" data-name="Enter Your Full Name" transform="translate(71 326)" fill="#212144" font-size="16" font-family="Montserrat-Regular, Montserrat" opacity="0.48"><tspan x="0" y="0">Enter Your Full Name</tspan></text>
    <path id="Icon_ionic-ios-person" data-name="Icon ionic-ios-person" d="M20.493,20.1c-.3-1.325-2.013-1.971-2.6-2.179a19.417,19.417,0,0,0-2.171-.417,2.206,2.206,0,0,1-1-.463,8.776,8.776,0,0,1-.067-2.054,6.181,6.181,0,0,0,.475-.9,11.663,11.663,0,0,0,.35-1.579s.342,0,.463-.6a5.9,5.9,0,0,0,.308-1.4c-.025-.479-.288-.467-.288-.467A7.306,7.306,0,0,0,16.238,7.9,3.433,3.433,0,0,0,12.5,4.5,3.418,3.418,0,0,0,8.767,7.9a7.62,7.62,0,0,0,.279,2.138s-.263-.013-.288.467a5.9,5.9,0,0,0,.308,1.4c.117.6.463.6.463.6a11.663,11.663,0,0,0,.35,1.579,6.18,6.18,0,0,0,.475.9,8.777,8.777,0,0,1-.067,2.054,2.206,2.206,0,0,1-1,.463,19.417,19.417,0,0,0-2.171.417c-.592.208-2.3.854-2.6,2.179a.333.333,0,0,0,.329.4h15.33A.332.332,0,0,0,20.493,20.1Z" transform="translate(24.499 307.5)" fill="#212144"/>
    <g id="Rectangle_56" data-name="Rectangle 56" transform="translate(15 433)" fill="#fff" stroke="#707070" stroke-width="1">
      <rect width="343" height="54" rx="15" stroke="none"/>
      <rect x="0.5" y="0.5" width="342" height="53" rx="14.5" fill="none"/>
    </g>
    <g id="Rectangle_57" data-name="Rectangle 57" transform="translate(15 503)" fill="#fff" stroke="#707070" stroke-width="1">
      <rect width="343" height="54" rx="15" stroke="none"/>
      <rect x="0.5" y="0.5" width="342" height="53" rx="14.5" fill="none"/>
    </g>
    <text id="Enter_Password" data-name="Enter Password" transform="translate(71 466)" fill="#212144" font-size="16" font-family="Montserrat-Regular, Montserrat" opacity="0.48"><tspan x="0" y="0">Enter Password</tspan></text>
    <text id="Confirm_Password" data-name="Confirm Password" transform="translate(71 535)" fill="#212144" font-size="16" font-family="Montserrat-Regular, Montserrat" opacity="0.48"><tspan x="0" y="0">Confirm Password</tspan></text>
    <path id="Icon_awesome-lock" data-name="Icon awesome-lock" d="M14.286,7.111h-.857V4.825C13.429,2.165,10.993,0,8,0S2.571,2.165,2.571,4.825V7.111H1.714A1.628,1.628,0,0,0,0,8.635v6.1a1.628,1.628,0,0,0,1.714,1.524H14.286A1.628,1.628,0,0,0,16,14.73v-6.1A1.628,1.628,0,0,0,14.286,7.111Zm-3.714,0H5.429V4.825A2.444,2.444,0,0,1,8,2.54a2.444,2.444,0,0,1,2.571,2.286Z" transform="translate(29 450.857)" fill="#212144" stroke="#212144" stroke-width="1"/>
    <path id="Icon_awesome-lock-2" data-name="Icon awesome-lock" d="M14.286,7.111h-.857V4.825C13.429,2.165,10.993,0,8,0S2.571,2.165,2.571,4.825V7.111H1.714A1.628,1.628,0,0,0,0,8.635v6.1a1.628,1.628,0,0,0,1.714,1.524H14.286A1.628,1.628,0,0,0,16,14.73v-6.1A1.628,1.628,0,0,0,14.286,7.111Zm-3.714,0H5.429V4.825A2.444,2.444,0,0,1,8,2.54a2.444,2.444,0,0,1,2.571,2.286Z" transform="translate(29 519.5)" fill="#212144" stroke="#212144" stroke-width="1"/>
    <text id="Enter_your_Email" data-name="Enter your Email" transform="translate(71 396)" fill="#212144" font-size="16" font-family="Montserrat-Regular, Montserrat" opacity="0.48"><tspan x="0" y="0">Enter your Email</tspan></text>
    <g id="layer1" transform="translate(-68.052 -461.497)">
      <g id="Group_5" data-name="Group 5" transform="translate(292.271 469.452)">
        <path id="Path_31" data-name="Path 31" d="M332.326,510.923q-.986.441-2.441,1.228-.875.467-2.929,1.628h.008c-.694.464-1.437.942-2.039,1.3-.366.219-.679.475-.681.565a10.4,10.4,0,0,0,1.409,1.4c.787.7,1.649,1.455,1.922,1.7l.483.449.235-.449.183-.382c.046-.1.093-.183.142-.263h.008l.957-1.853h.008a46.464,46.464,0,0,1,2.217-4.315h.008l.519-1Zm.552.041-3.318,6.415h.01a14.672,14.672,0,0,0-.748,2.17,7.778,7.778,0,0,0,1.682,1.75c.934.772,1.739,1.474,1.793,1.528s.366.33.7.645c.263.235.454.367.6.367s.214-.111.268-.354h.01l.23-8.123h.008c-.028-.023-.039-.049-.026-.072.039-.09-.2-.276-.568-.423-.586-.258-.64-.333-.547-.79.075-.276.15-.7.2-.937a5.454,5.454,0,0,0-.031-1.321c-.072-.529-.119-.759-.253-.854Zm32.189,40.782a1.3,1.3,0,0,0-.446.1.467.467,0,0,0-.3.4,1.565,1.565,0,0,1-.534.751c-.441.385-.756,1.156-1.755,4.144-.962,2.9-1.166,3.7-.983,3.868a18.52,18.52,0,0,0,4.361.325,9.313,9.313,0,0,0,2.575-.176c.165-.165.261-1.4.323-4.093.085-3.357.067-3.853-.191-3.853a.963.963,0,0,1-.568-.462.954.954,0,0,0-.73-.459,2.58,2.58,0,0,1-.955-.279A1.83,1.83,0,0,0,365.067,551.747Zm8.947.343-2.33.124c-1.267.07-2.348.157-2.387.194a11.144,11.144,0,0,0,.124,1.964c.126,1.027.25,2.165.286,2.516a12.823,12.823,0,0,0,.485,2.973,1.266,1.266,0,0,1,.108.735.887.887,0,0,0,.09.55c.147.294.459.333,2.441.338l2.294.008,0-1.066a11.663,11.663,0,0,0-.2-1.871c-.237-1.1-.65-3.855-.792-5.306Zm8.83-82.638a4.566,4.566,0,0,1,.9.07,9.012,9.012,0,0,1,1.742.686,10.459,10.459,0,0,1,3.458,3.881,8.088,8.088,0,0,1,1.092,3.123c.557,3.453-.054,5.69-2.17,7.865a1.533,1.533,0,0,0-.405.625.3.3,0,0,1-.2.255c-.276.09-.3,2.844-.028,3.12.33.33.273,1.3-.173,2.586-.444,1.3-.392,2.366.139,2.882a16.661,16.661,0,0,1,1.061,1.288,12.767,12.767,0,0,0,1.115,1.363,7.4,7.4,0,0,1,.89,3.084,1.274,1.274,0,0,0,.072.423,27.012,27.012,0,0,1-.046,3.835,3.266,3.266,0,0,1-.39.934,8.29,8.29,0,0,0-.648,1.688c-1.241,4.253-1.463,5.1-1.391,5.208.036.072,0,.165-.111.2-.09.018-.2.294-.24.606a46.014,46.014,0,0,1-1.445,5.04,12.29,12.29,0,0,0-.485,2.147,1.669,1.669,0,0,0,.142,1.182h.008q2.849,3.195,8.89,9.752a17.468,17.468,0,0,1,1.159,2.067h0q.044,0,3.032,6.487.627,1.306,1.523,2.9.1.258-.2.351h.008l-.183.2a.854.854,0,0,0-.1,1.3,1.286,1.286,0,0,1,.273.552,4.106,4.106,0,0,1-1.435.8c-1.891.839-1.948.893-1.8,2.16.07.57.157,2.369.206,3.982a28.036,28.036,0,0,0,.175,3.011h0c.108,0,2.183-1.992,4.671-4.464,2.524-2.524,5.153-5.086,5.873-5.726a9.313,9.313,0,0,0,2.338-3.205l1.071-2.052.008-2.2c.023-2.369.266-3.195,1.223-4.036a24.509,24.509,0,0,0,2.181-2.573h.008l3.62-5.662a.312.312,0,0,1,.157-.108h.008a.239.239,0,0,1,.191-.106.329.329,0,0,1,.175.059l.008.005a.252.252,0,0,1,.052.3l-3.608,6.676h0l-.052.462h0l.333.1a3.042,3.042,0,0,0,.315.067,2.478,2.478,0,0,0,.356.026,2.215,2.215,0,0,0,.384-.028,4.561,4.561,0,0,0,1.373-.48,35.386,35.386,0,0,0,5.187-3.677h.008l.031-.039q.47-.413.815-.7h.008a2.363,2.363,0,0,1,.271-.237h.008q.307-.25.475-.364a1.126,1.126,0,0,1,.655-.263h.013l.049,0a5.019,5.019,0,0,1,1.453.529,15.762,15.762,0,0,1,2.057,1.074,4.745,4.745,0,0,1,1.845,1.858,3.153,3.153,0,0,1-.059,2.431,6.611,6.611,0,0,1-.885,1.608q-.467.64-.774.64H429.1l-.026,0h-.008a.657.657,0,0,1-.075.005,3.116,3.116,0,0,1-.663-.134,6.919,6.919,0,0,0-1.757-.225,4.884,4.884,0,0,0-2.059.379,4.212,4.212,0,0,0-.542.356h.008a57.637,57.637,0,0,0-5.321,6.077,15.049,15.049,0,0,0-1.891,3.726.287.287,0,0,1-.178.072h-.013c-.2.292-.557.395-1.231.392-.114,0-.237,0-.369-.01-.16-.005-.3-.01-.415-.01a2.509,2.509,0,0,0-.366.021h.008q-3.592,5-5.171,7.44-.673,1.042-1.156,1.9l-1.824,3.471q-.6,1.081-1.69,2.87l-2.322,3.729a.279.279,0,0,1-.2.1h-.021a5.148,5.148,0,0,1-.686.89,3.971,3.971,0,0,0-.7.859,15.245,15.245,0,0,1-1.381,1.484c-1.239,1.244-1.837,1.682-2.722,1.68a5.852,5.852,0,0,1-1.246-.188c-3.063-.707-3.682-1.479-6.6-8.276-.655-1.525-1.455-3.473-1.786-4.374-.436-1.138-.692-1.6-.929-1.6-.2,0-.333.183-.405.586-.039.33-.224,1.267-.374,2.072a47.954,47.954,0,0,0-.488,4.921h.008q.008.64.01,1.115.005,1.275-.031,2.023-.021.444-.054.753l-.134.957q-.026.212-.041.413a9.591,9.591,0,0,0,.005,1.174q.034.594.137,1.5l.6,4.658q.176,1.453.281,2.642a40.025,40.025,0,0,1,.181,4.627,22.441,22.441,0,0,1-.426,3.755q-.121.813-.978,3.86h.01c-.075.635-.165,1.618-.245,2.707l-.23,3.339.421.459a.991.991,0,0,1,.328.771,8.411,8.411,0,0,0,.978,4.426c.421.865.8,1.711.859,1.858a6.21,6.21,0,0,1-.137,2.568,69.62,69.62,0,0,0-.852,8.952c-.036.968-.067,1.21-.266,1.208a.416.416,0,0,1-.106-.016c-.276-.075-.31-.405-.3-3.69.01-3.592-.052-4.663-.369-4.911h-.008a17.751,17.751,0,0,0-2.124,1.375,7.649,7.649,0,0,0-1.582,1.662,7.926,7.926,0,0,0-1.012,2.059,19.921,19.921,0,0,0-.715,3.081,3,3,0,0,1-.214.614,2,2,0,0,1-1.406,1.086,11.383,11.383,0,0,1-2.931.245q-.692,0-1.523-.031a.391.391,0,0,1-.183-.1h-.01c-.075,0-.144,0-.209,0-.872,0-.942-.075-.939-.3a6.867,6.867,0,0,0-.346-1.36,6.479,6.479,0,0,1-.374-3.468,2.684,2.684,0,0,1,1.892-1.022c.369-.075.681-.2.681-.292s.111-.165.237-.165c.312,0,1.437-1.172,1.915-2.013a23.308,23.308,0,0,0,1.184-3.117l.815-2.475.01-3.432a17.43,17.43,0,0,0-.173-3.6c-.111-.09-4.075-.286-8.807-.41-4.753-.142-9.816-.323-11.285-.418s-4.5-.235-6.735-.315c-3.925-.121-4.054-.139-4.162-.526a23.488,23.488,0,0,1-.1-2.79c.008-2.606-.01-2.642-1.019-2.645a.625.625,0,0,1-.568-.294,14.252,14.252,0,0,1,.209-2.534c.317-2.292.751-5.76,1.071-8.639.1-.916.3-2.513.452-3.577s.323-4.165.405-6.88c.062-2.735.181-5.486.255-6.147l.116-1.192.586.057a1.906,1.906,0,0,0,.2.01c.24,0,.4-.052.4-.137,0-.111.2-.2.459-.2.366,0,.459-.09.459-.457,0-.312-.005-.433.217-.433a5.083,5.083,0,0,1,.795.142c2.877.632,5.484,1.117,6.436,1.231l1.138.132.756-1.081c.405-.586.921-1.264,1.122-1.52.444-.532,3.078-4.653,3.54-5.551a14.537,14.537,0,0,0,.63-1.556c.165-.514.369-.955.459-.955.2,0,.5-1.649.635-3.577a9.416,9.416,0,0,1,1.1-4.511c.276-.439.885-1.391,1.326-2.088,1.035-1.613,1.146-2.033,1.375-5.153.1-1.412.266-3.411.361-4.475.32-3.267.766-11.615.661-12.275a18.919,18.919,0,0,0-1.84-4.575.173.173,0,0,0-.049-.008.19.19,0,0,0-.173.209.78.78,0,0,1-.369.513,1.289,1.289,0,0,0-.405.532,1.069,1.069,0,0,1-.387.511c-.165.129-.276.312-.222.4.057.075-.036.183-.183.258a.44.44,0,0,0-.276.385c0,.147-.093.274-.183.274a.174.174,0,0,0-.186.183,1.147,1.147,0,0,1-.33.513,16.521,16.521,0,0,0-1.326,1.685,6.231,6.231,0,0,1-.867,1.006,1.254,1.254,0,0,0-.423.529.789.789,0,0,1-.24.366c-.111.129-.534.586-.939,1.006-.41.475-.7.676-.913.673a.286.286,0,0,1-.1-.016,13.152,13.152,0,0,0-1.67-.372,53.891,53.891,0,0,1-13.824-4.666l-2.529-1.218-2.513-.155a14.48,14.48,0,0,1-3.3-.449,12.949,12.949,0,0,0-1.6-.408c-.059-.008-.119-.018-.173-.028H334.6l-.168,5.865h.01c.013,1.1.028,2.021.039,2.382l.015,1.009,2.217,1.935c1.226,1.048,2.451,2.134,2.746,2.392.273.276.805.717,1.151.994.366.279.661.573.661.663a13.807,13.807,0,0,1-1.917,2.766,5.437,5.437,0,0,0-.7.952c.018.054-.168.292-.387.55a4.431,4.431,0,0,0-.684.97,5.246,5.246,0,0,1-.57.841,4.287,4.287,0,0,0-.552.826,4.987,4.987,0,0,1-.591.859c-.294.312-1.657,2.217-2.248,3.151-.111.147-.333.457-.5.676-.645.787-2.506,3.37-2.728,3.773a7.163,7.163,0,0,1-.643.9c-.222.255-.978,1.135-1.641,1.941-2.191,2.617-2.578,3.076-3.424,4.046a33.146,33.146,0,0,0-2.449,3.037,8.471,8.471,0,0,1-1.179,1.43,10.762,10.762,0,0,1-1.793-1.326,16.291,16.291,0,0,0-1.559-1.125c-.658-.423-1.319-.867-1.463-1-2.124-1.714-3.169-2.449-3.517-2.452a3.3,3.3,0,0,0-1.324.73,5.146,5.146,0,0,1-1.012.733,28.9,28.9,0,0,1-3.236-3.68c-.694-.865-1.409-1.729-1.592-1.933-.2-.2-.565-.661-.841-1.011-.255-.348-.619-.808-.8-1.012s-.916-1.141-1.628-2.077a10.986,10.986,0,0,0-2.232-2.338c-1.556-1.032-1.94-1.437-1.938-2.134,0-.5-.237-.883-1.187-2.005a29.154,29.154,0,0,1-1.866-2.39c-.364-.552-1.133-1.729-1.716-2.611l-1.079-1.6.5-.328a9.565,9.565,0,0,0,1.012-.841,2.148,2.148,0,0,1,.717-.5.165.165,0,0,0,.168-.163c0-.093.2-.219.459-.274a3.235,3.235,0,0,0,1.066-.751,2.428,2.428,0,0,1,.864-.64,3.279,3.279,0,0,0,.994-.6c.423-.348,1.654-1.226,2.777-1.974,1.1-.73,2.15-1.481,2.335-1.626a5.554,5.554,0,0,1,1.507-1.043c.366-.165.661-.364.663-.457a.158.158,0,0,1,.147-.147c.2,0,8.09-5.223,8.6-5.682a1.355,1.355,0,0,1,.643-.346,11.944,11.944,0,0,0,3.293-2.266,11.881,11.881,0,0,1,1.288-1.024c.054,0,.988.792,2.106,1.768,1.548,1.363,1.922,1.667,2.333,1.675h0q4.366-2.5,5.909-3.329a30.975,30.975,0,0,1,3.063-1.5h.01a.232.232,0,0,1,.16-.07h.01a.551.551,0,0,0,.085-.157c.07-.222.2-.3.759-.294.181,0,.408.008.692.023a6.372,6.372,0,0,1,1.688.224,3.523,3.523,0,0,0,.934.3,9.027,9.027,0,0,1,2.09,1.179c.805.591,1.739,1.236,2.049,1.458a37.881,37.881,0,0,0,5.628,1.925c.459.111,1.357.369,2.018.555a41.355,41.355,0,0,0,9.316,1.812,2.542,2.542,0,0,0,.9-.111c.387-.165.939-.934,2.119-2.911.885-1.484,1.992-3.28,2.451-3.976a6.006,6.006,0,0,0,.831-1.631,20.973,20.973,0,0,1,1.682-4.343,2.857,2.857,0,0,0,.354-1.045.7.7,0,0,1,.165-.5,1.441,1.441,0,0,0,.315-.679,3.338,3.338,0,0,1,.279-.88,18.087,18.087,0,0,0,1.277-3.94,2.007,2.007,0,0,1,.369-1.063,1.828,1.828,0,0,0,.372-.952,2.506,2.506,0,0,1,.939-1.8,2.9,2.9,0,0,0,.725-2.787,2.38,2.38,0,0,0-.384-.846c-.108-.054-.07-.679.062-1.486.2-1.393.2-1.393-.271-1.982-.475-.552-.475-.588-.2-1.156A8.917,8.917,0,0,1,371,483.8c.552-.7.552-.715.446-2.513-.1-1.651-.067-1.871.32-2.6a6.081,6.081,0,0,0,.519-1.817,6.65,6.65,0,0,1,2.2-4.031,13.368,13.368,0,0,1,3.824-2.539c.111,0,.2-.072.2-.147C378.514,469.837,381.221,469.447,382.844,469.452Z" transform="translate(-292.271 -469.452)" fill="#212144"/>
      </g>
    </g>
    <path id="Icon_material-email" data-name="Icon material-email" d="M17.4,6H4.6A1.6,1.6,0,0,0,3.008,7.6L3,17.2a1.6,1.6,0,0,0,1.6,1.6H17.4A1.6,1.6,0,0,0,19,17.2V7.6A1.6,1.6,0,0,0,17.4,6Zm0,3.2-6.4,4-6.4-4V7.6l6.4,4,6.4-4Z" transform="translate(26 379)" fill="#212144"/>
  </g>
</svg>
